#!OML:ASF I:\salsa\salsa 7_09\Patient 1\Session 1\dancerfemale.ASF
:FULLY-SPECIFIED
:DEGREES
1207
root -19.0001 15.946 4.93181 -1292.09 -252.632 139.594
lowerback 2.80666 4.11024 3.92291
upperback -7.30743 6.24253 2.5967
thorax -9.18789 2.97153 -0.103815
lowerneck 0.972499 1.15221 -4.39484
upperneck 11.2186 0.954245 10.521
head 3.06233 0.811283 3.95649
rclavicle -1.72943e-014 2.78299e-015
rhumerus 20.5834 31.1964 -99.4756
rradius 45.0752
rwrist 8.89877
rhand 3.46754 764.73
rfingers 7.12502
rthumb 28.9072 16.9505
lclavicle -1.72943e-014 2.78299e-015
lhumerus -1.04493 -4.21869 100.066
lradius 70.2832
lwrist -13.8956
lhand -37.0751 30.3546
lfingers 7.12502
lthumb -10.1471 -299.91
rfemur 14.7749 -7.28189 32.3864
rtibia 1.59028e-014
rfoot -6.44064 -3.59276
rtoes -22.3024
lfemur -46.8884 6.7478 -4.28931
ltibia 42.3581
lfoot -3.85606 24.7715
ltoes 3.05441
1208
root -18.9189 15.9292 4.89977 -1291.57 -252.237 140.17
lowerback 2.59631 4.07656 3.97923
upperback -7.36344 6.21213 2.76553
thorax -9.14181 2.96507 0.0603695
lowerneck 0.984541 1.24178 -4.304
upperneck 11.3913 1.08616 10.2358
head 3.10601 0.872615 3.85828
rclavicle -9.28821e-014 -2.66371e-014
rhumerus 19.7861 31.7318 -99.6707
rradius 45.5659
rwrist 8.09545
rhand 3.3523 764.899
rfingers 7.12502
rthumb 28.7971 17.1001
lclavicle -9.28821e-014 -2.66371e-014
lhumerus -1.81111 -3.86286 99.9118
lradius 70.7823
lwrist -13.8032
lhand -36.8328 30.5188
lfingers 7.12502
lthumb -9.91336 -299.735
rfemur 15.1358 -5.88651 32.4862
rtibia 2.22639e-014
rfoot -6.25287 -4.85476
rtoes -22.2692
lfemur -46.4161 6.23092 -3.236
ltibia 41.5845
lfoot -2.70504 25.7712
ltoes 5.98405
1209
root -18.8188 15.9174 4.85587 -1292.11 -252.158 139.62
lowerback 2.42538 3.95222 4.26172
upperback -7.5114 6.08912 2.93016
thorax -9.20066 2.89576 0.098782
lowerneck 1.02866 1.37651 -4.46869
upperneck 11.7057 1.25436 10.2776
head 3.17743 0.959732 3.90705
rclavicle 1.63997e-014 3.02153e-014
rhumerus 18.6404 32.1334 -99.8707
rradius 46.1923
rwrist 7.24152
rhand 3.02764 764.92
rfingers 7.12502
rthumb 28.487 17.0695
lclavicle 1.63997e-014 3.02153e-014
lhumerus -2.76142 -3.71654 99.8684
lradius 71.1858
lwrist -13.644
lhand -36.9668 30.7922
lfingers 7.12502
lthumb -10.0426 -299.467
rfemur 15.3811 -4.89467 32.5897
rtibia 0
rfoot -6.07177 -5.46428
rtoes -23.5416
lfemur -46.0761 5.72363 -2.39219
ltibia 41.1899
lfoot -1.56237 25.8027
ltoes 6.19734
1210
root -18.6983 15.9084 4.80158 -1292.43 -252.601 139.272
lowerback 2.19087 3.81729 4.2824
upperback -7.67057 5.91426 2.9489
thorax -9.24251 2.81285 0.135889
lowerneck 0.897398 1.32772 -4.36367
upperneck 12.1414 1.1957 9.9646
head 3.33909 0.937595 3.8005
rclavicle -1.05853e-014 -2.74323e-014
rhumerus 17.4549 32.2231 -99.9806
rradius 46.7726
rwrist 6.44479
rhand 2.52634 765.006
rfingers 7.12502
rthumb 28.0079 17.0757
lclavicle -1.05853e-014 -2.74323e-014
lhumerus -3.69738 -3.85516 99.9528
lradius 71.4021
lwrist -13.5405
lhand -36.9073 30.9929
lfingers 7.12502
lthumb -9.98518 -299.264
rfemur 15.6739 -4.26918 32.2318
rtibia 3.18055e-015
rfoot -5.88602 -5.69446
rtoes -24.47
lfemur -45.7699 5.1523 -2.26374
ltibia 41.1095
lfoot -0.796754 25.0489
ltoes 4.54023
1211
root -18.5561 15.8978 4.74048 -1292.9 -253.394 138.898
lowerback 1.94249 3.65736 4.17382
upperback -7.76008 5.67928 2.88605
thorax -9.20129 2.70633 0.166237
lowerneck 0.886872 1.34657 -4.36788
upperneck 12.3966 1.21359 9.9666
head 3.4157 0.955557 3.80701
rclavicle 1.62506e-014 5.24792e-014
rhumerus 16.3433 32.0812 -100.057
rradius 47.3051
rwrist 5.85226
rhand 1.91748 765.411
rfingers 7.12502
rthumb 27.4257 17.3869
lclavicle 1.62506e-014 5.24792e-014
lhumerus -4.48712 -4.05187 100.115
lradius 71.4222
lwrist -13.6956
lhand -36.6352 30.6512
lfingers 7.12502
lthumb -9.72269 -299.593
rfemur 16.1433 -3.94391 31.6415
rtibia 0
rfoot -5.57607 -5.88478
rtoes -25.2085
lfemur -45.3307 4.73809 -2.75638
ltibia 41.2487
lfoot -0.266755 23.2325
ltoes -0.648418
1212
root -18.394 15.8807 4.67344 -1294.32 -254.244 137.643
lowerback 1.87207 3.46212 4.28297
upperback -7.92186 5.43503 2.8474
thorax -9.33088 2.57681 0.0877212
lowerneck 0.995237 1.3082 -4.32731
upperneck 12.6225 1.17158 9.77184
head 3.4714 0.933881 3.74217
rclavicle 5.68027e-014 7.196e-014
rhumerus 14.9674 31.8006 -100.3
rradius 47.8675
rwrist 5.43934
rhand 1.35668 766.076
rfingers 7.12502
rthumb 26.8892 17.9683
lclavicle 5.68027e-014 7.196e-014
lhumerus -5.47326 -4.19867 100.37
lradius 71.4636
lwrist -13.907
lhand -36.4627 30.2565
lfingers 7.12502
lthumb -9.55623 -299.98
rfemur 16.7702 -3.81478 31.2311
rtibia 3.18055e-015
rfoot -4.9517 -6.31974
rtoes -26.3776
lfemur -44.7672 4.62334 -3.43777
ltibia 41.5572
lfoot -0.667838 20.5353
ltoes -9.27823
1213
root -18.2124 15.8668 4.59985 -1295.75 -255.287 136.341
lowerback 1.75924 3.25763 4.2651
upperback -8.14337 5.1692 2.76271
thorax -9.50934 2.44379 0.0332656
lowerneck 1.04166 1.21202 -4.2714
upperneck 12.9775 1.0585 9.46676
head 3.58285 0.877675 3.6419
rclavicle 7.65321e-015 4.77083e-015
rhumerus 13.4687 31.4304 -100.661
rradius 48.4228
rwrist 5.08854
rhand 0.894985 766.544
rfingers 7.12502
rthumb 26.4473 18.3697
lclavicle 7.65321e-015 4.77083e-015
lhumerus -6.54269 -4.25187 100.762
lradius 71.4519
lwrist -14.2312
lhand -36.2168 30.3177
lfingers 7.12502
lthumb -9.31904 -299.908
rfemur 17.4384 -3.81441 30.6656
rtibia 3.81667e-014
rfoot -3.78872 -6.89242
rtoes -26.7565
lfemur -44.228 4.49343 -4.43192
ltibia 41.9235
lfoot -2.34847 18.0155
ltoes -16.9821
1214
root -18.0069 15.8649 4.51613 -1297.43 -256.422 134.757
lowerback 1.41874 3.07964 4.19644
upperback -8.2987 4.91813 2.70711
thorax -9.48539 2.32934 0.0521241
lowerneck 1.01397 1.0912 -4.53884
upperneck 13.2817 0.896692 9.43153
head 3.68879 0.793747 3.67808
rclavicle 1.23246e-014 1.78906e-015
rhumerus 12.0504 31.015 -100.911
rradius 48.8764
rwrist 4.63007
rhand 0.427872 766.672
rfingers 7.12502
rthumb 26.0001 18.4307
lclavicle 1.23246e-014 1.78906e-015
lhumerus -7.40374 -4.27961 101.281
lradius 71.143
lwrist -14.6917
lhand -36.1265 30.026
lfingers 7.12502
lthumb -9.23184 -300.196
rfemur 18.1512 -3.87469 29.9874
rtibia 6.04305e-014
rfoot -2.04341 -7.47295
rtoes -25.8482
lfemur -43.642 4.11377 -5.46948
ltibia 42.1862
lfoot -4.47167 15.993
ltoes -21.4979
1215
root -17.7763 15.8741 4.41902 -1299.84 -257.492 132.449
lowerback 0.924258 2.9928 4.34941
upperback -8.38895 4.79188 2.67816
thorax -9.28151 2.26544 -0.0239673
lowerneck 1.08012 0.905298 -4.95946
upperneck 13.3753 0.650826 9.44944
head 3.7211 0.65511 3.74991
rclavicle 2.86001e-014 1.23246e-014
rhumerus 10.6322 30.4457 -101.036
rradius 49.2907
rwrist 4.03239
rhand -0.113012 766.819
rfingers 7.12502
rthumb 25.4821 18.5027
lclavicle 2.86001e-014 1.23246e-014
lhumerus -8.12295 -4.46329 101.976
lradius 70.7033
lwrist -15.1999
lhand -36.1341 29.5378
lfingers 7.12502
lthumb -9.23921 -300.685
rfemur 18.9259 -3.93109 29.3356
rtibia -1.59028e-014
rfoot 0.104139 -8.0679
rtoes -25.0577
lfemur -42.8878 3.60001 -6.44496
ltibia 42.1958
lfoot -6.3318 14.2792
ltoes -23.1194
1216
root -17.5264 15.8919 4.31218 -1301.78 -258.825 130.643
lowerback 0.344645 2.99947 4.291
upperback -8.45324 4.7528 2.47532
thorax -8.99505 2.25249 -0.168989
lowerneck 1.1618 0.580911 -5.20142
upperneck 13.4175 0.233269 9.28301
head 3.75233 0.430112 3.72892
rclavicle 8.77883e-014 5.28767e-014
rhumerus 9.21558 29.6638 -101.084
rradius 49.9428
rwrist 3.28805
rhand -0.681297 767.126
rfingers 7.12502
rthumb 24.9377 18.7333
lclavicle 8.77883e-014 5.28767e-014
lhumerus -8.7515 -4.90698 102.802
lradius 70.0981
lwrist -15.703
lhand -36.1267 29.1439
lfingers 7.12502
lthumb -9.23206 -301.078
rfemur 17.6889 -4.08015 28.149
rtibia 3.92695
rfoot 0.890318 -8.42747
rtoes -24.6634
lfemur -41.9117 3.23614 -8.08158
ltibia 41.8304
lfoot -7.78339 12.754
ltoes -23.11
